<?xml version="1.0" encoding="UTF-8" standalone="no"?>
<!DOCTYPE svg PUBLIC "-//W3C//DTD SVG 1.1//EN" "http://www.w3.org/Graphics/SVG/1.1/DTD/svg11.dtd">
<svg width="100%" height="100%" viewBox="0 0 60 27" version="1.1" xmlns="http://www.w3.org/2000/svg" xmlns:xlink="http://www.w3.org/1999/xlink" xml:space="preserve" xmlns:serif="http://www.serif.com/" style="fill-rule:evenodd;clip-rule:evenodd;stroke-linejoin:round;stroke-miterlimit:2;">
    <g id="Artboard1" transform="matrix(0.952381,0,0,0.710526,-228.571,-156.316)">
        <rect x="240" y="220" width="63" height="38" style="fill:none;"/>
        <g transform="matrix(0.0789166,0,0,0.105779,211.848,170.749)">
            <g transform="matrix(340.635,0,0,340.635,376,753)">
                <path d="M0.302,-0.836L0.306,-0.836L0.302,-0.829L0.302,-0.814C0.333,-0.82 0.349,-0.828 0.349,-0.836L0.371,-0.833C0.408,-0.835 0.441,-0.836 0.472,-0.836L0.476,-0.836C0.524,-0.836 0.58,-0.81 0.646,-0.757C0.66,-0.734 0.668,-0.714 0.672,-0.695L0.672,-0.659C0.664,-0.609 0.65,-0.571 0.632,-0.546C0.621,-0.537 0.597,-0.507 0.56,-0.456L0.556,-0.456L0.556,-0.463L0.566,-0.478L0.56,-0.478C0.474,-0.405 0.378,-0.349 0.27,-0.311C0.243,-0.304 0.216,-0.3 0.19,-0.3C0.224,-0.26 0.287,-0.207 0.378,-0.141C0.387,-0.136 0.445,-0.099 0.552,-0.028C0.641,0.027 0.747,0.087 0.871,0.153L0.871,0.157L0.856,0.157C0.832,0.148 0.82,0.141 0.82,0.138L0.813,0.142L0.806,0.142C0.803,0.142 0.802,0.141 0.802,0.138C0.793,0.14 0.786,0.149 0.78,0.164C0.795,0.168 0.802,0.173 0.802,0.178C0.796,0.183 0.792,0.186 0.788,0.186L0.77,0.182L0.77,0.186C0.77,0.19 0.773,0.193 0.78,0.193L0.78,0.204L0.777,0.204C0.772,0.204 0.717,0.172 0.614,0.109C0.541,0.072 0.451,0.015 0.346,-0.061C0.311,-0.077 0.247,-0.124 0.153,-0.202L0.143,-0.202C0.129,-0.181 0.111,-0.129 0.088,-0.046C0.083,-0.027 0.059,0.001 0.016,0.037L0.008,0.037L0.001,0.026L0.001,0.022C0.001,0.017 0.005,0.006 0.012,-0.01L0.012,-0.014L0.008,-0.014C0.008,-0.007 -0.007,0.004 -0.035,0.019L-0.039,0.019L-0.039,0.012C0.046,-0.24 0.105,-0.404 0.139,-0.481C0.197,-0.614 0.226,-0.69 0.226,-0.709C0.213,-0.709 0.184,-0.693 0.139,-0.659L0.132,-0.659L0.135,-0.666L0.135,-0.673C0.122,-0.673 0.092,-0.652 0.045,-0.608L0.041,-0.608L0.041,-0.612L0.088,-0.666L0.096,-0.677L0.096,-0.681L0.088,-0.681L0.045,-0.645C0.04,-0.645 0.038,-0.647 0.038,-0.651C0.083,-0.701 0.138,-0.744 0.204,-0.778C0.265,-0.794 0.295,-0.812 0.295,-0.833L0.302,-0.836ZM0.632,-0.735L0.632,-0.731C0.632,-0.727 0.635,-0.724 0.639,-0.724L0.639,-0.728C0.639,-0.732 0.637,-0.735 0.632,-0.735ZM0.208,-0.387L0.211,-0.387C0.255,-0.396 0.277,-0.403 0.277,-0.409C0.274,-0.414 0.273,-0.417 0.273,-0.42C0.365,-0.451 0.427,-0.482 0.458,-0.514C0.461,-0.514 0.48,-0.534 0.516,-0.576L0.52,-0.576L0.52,-0.572C0.515,-0.564 0.512,-0.558 0.512,-0.554L0.516,-0.554C0.547,-0.578 0.563,-0.604 0.563,-0.633L0.563,-0.655C0.556,-0.655 0.552,-0.658 0.552,-0.663C0.564,-0.665 0.57,-0.671 0.57,-0.681C0.57,-0.693 0.546,-0.705 0.498,-0.717C0.459,-0.727 0.417,-0.731 0.371,-0.731C0.348,-0.731 0.325,-0.689 0.302,-0.604C0.292,-0.594 0.261,-0.522 0.208,-0.387ZM0.251,-0.695L0.251,-0.691C0.255,-0.691 0.258,-0.695 0.262,-0.702L0.262,-0.706C0.259,-0.706 0.255,-0.702 0.251,-0.695ZM0.255,-0.626L0.259,-0.626C0.266,-0.629 0.27,-0.636 0.27,-0.648C0.266,-0.648 0.261,-0.641 0.255,-0.626ZM0.596,-0.612L0.596,-0.604C0.599,-0.604 0.603,-0.608 0.606,-0.615L0.606,-0.619L0.603,-0.619C0.598,-0.618 0.596,-0.616 0.596,-0.612ZM0.204,-0.369L0.204,-0.365L0.211,-0.365C0.216,-0.368 0.22,-0.369 0.222,-0.369L0.222,-0.365C0.281,-0.376 0.316,-0.388 0.328,-0.401L0.324,-0.401C0.271,-0.389 0.231,-0.378 0.204,-0.369ZM0.19,-0.333L0.193,-0.333L0.259,-0.347L0.255,-0.354C0.212,-0.349 0.19,-0.341 0.19,-0.333ZM0.334,-0.108L0.334,-0.101C0.372,-0.072 0.395,-0.057 0.403,-0.057C0.394,-0.064 0.389,-0.07 0.389,-0.075L0.334,-0.108ZM0.44,-0.028C0.442,-0.019 0.449,-0.014 0.461,-0.014L0.465,-0.014L0.465,-0.018C0.459,-0.018 0.452,-0.021 0.443,-0.028L0.44,-0.028ZM0.675,0.102C0.694,0.119 0.723,0.136 0.762,0.153L0.766,0.146C0.736,0.128 0.708,0.113 0.683,0.102L0.675,0.102ZM0.875,0.16L0.886,0.16C0.89,0.161 0.893,0.163 0.893,0.167C0.888,0.167 0.886,0.171 0.886,0.178L0.878,0.178L0.882,0.171L0.882,0.167L0.875,0.167L0.875,0.16Z" style="fill:white;fill-rule:nonzero;"/>
            </g>
            <g transform="matrix(340.635,0,0,340.635,588.398,753)">
                <path d="M0.631,-0.705C0.646,-0.705 0.661,-0.696 0.673,-0.678L0.646,-0.678C0.62,-0.678 0.587,-0.67 0.546,-0.653L0.546,-0.65L0.549,-0.65C0.607,-0.654 0.649,-0.656 0.677,-0.656L0.683,-0.656L0.683,-0.65L0.67,-0.65C0.668,-0.65 0.667,-0.651 0.667,-0.653L0.503,-0.629C0.503,-0.627 0.493,-0.624 0.473,-0.62L0.473,-0.614L0.519,-0.623L0.521,-0.623L0.521,-0.617C0.386,-0.581 0.318,-0.555 0.318,-0.538C0.252,-0.483 0.204,-0.431 0.175,-0.383C0.131,-0.304 0.108,-0.243 0.108,-0.201C0.108,-0.157 0.131,-0.125 0.175,-0.104C0.183,-0.102 0.19,-0.101 0.196,-0.101C0.286,-0.136 0.353,-0.196 0.397,-0.28C0.409,-0.318 0.419,-0.363 0.427,-0.417L0.434,-0.417L0.427,-0.359C0.433,-0.359 0.439,-0.374 0.443,-0.404C0.441,-0.412 0.439,-0.42 0.439,-0.429L0.439,-0.438L0.446,-0.438C0.448,-0.407 0.449,-0.386 0.449,-0.374C0.449,-0.358 0.444,-0.331 0.434,-0.292C0.445,-0.302 0.458,-0.335 0.473,-0.392C0.48,-0.447 0.486,-0.474 0.491,-0.474C0.491,-0.472 0.492,-0.471 0.494,-0.471C0.492,-0.469 0.49,-0.457 0.488,-0.435L0.488,-0.432L0.491,-0.432C0.499,-0.454 0.504,-0.48 0.506,-0.508C0.502,-0.516 0.5,-0.522 0.5,-0.526L0.506,-0.529C0.512,-0.529 0.518,-0.513 0.525,-0.48C0.525,-0.4 0.491,-0.297 0.424,-0.17C0.372,-0.093 0.305,-0.042 0.224,-0.019C0.188,-0.006 0.154,-0 0.121,-0C0.04,-0.022 -0.001,-0.083 -0.001,-0.183C-0.001,-0.296 0.045,-0.398 0.136,-0.489C0.165,-0.522 0.227,-0.568 0.321,-0.629C0.425,-0.68 0.529,-0.705 0.631,-0.705ZM0.482,-0.656L0.482,-0.653C0.499,-0.653 0.508,-0.652 0.509,-0.65C0.526,-0.659 0.536,-0.663 0.54,-0.663L0.54,-0.668L0.482,-0.656ZM0.099,-0.417C0.144,-0.458 0.179,-0.494 0.206,-0.523C0.23,-0.538 0.242,-0.55 0.242,-0.559C0.201,-0.535 0.156,-0.493 0.108,-0.432C0.102,-0.427 0.099,-0.422 0.099,-0.417ZM0.105,-0.261C0.108,-0.261 0.118,-0.284 0.136,-0.328C0.158,-0.378 0.203,-0.439 0.272,-0.511L0.272,-0.514C0.204,-0.463 0.167,-0.422 0.16,-0.392C0.142,-0.371 0.124,-0.328 0.105,-0.261ZM0.069,-0.334L0.069,-0.332L0.072,-0.332C0.116,-0.393 0.139,-0.429 0.139,-0.438C0.11,-0.413 0.086,-0.378 0.069,-0.334ZM0.467,-0.31L0.467,-0.307L0.47,-0.307C0.492,-0.371 0.503,-0.413 0.503,-0.432C0.49,-0.409 0.478,-0.369 0.467,-0.31ZM0.087,-0.404L0.087,-0.401C0.091,-0.401 0.093,-0.403 0.093,-0.407L0.093,-0.41C0.089,-0.41 0.087,-0.408 0.087,-0.404ZM0.063,-0.368C0.032,-0.297 0.017,-0.245 0.017,-0.213C0.021,-0.148 0.028,-0.107 0.039,-0.088L0.042,-0.088L0.042,-0.094C0.035,-0.107 0.032,-0.129 0.032,-0.158C0.032,-0.191 0.035,-0.227 0.042,-0.268L0.039,-0.273C0.045,-0.3 0.054,-0.331 0.066,-0.365L0.066,-0.368L0.063,-0.368ZM0.096,-0.24L0.096,-0.237C0.1,-0.237 0.103,-0.239 0.103,-0.243L0.103,-0.246C0.098,-0.245 0.096,-0.243 0.096,-0.24ZM0.397,-0.222L0.397,-0.219L0.4,-0.219C0.408,-0.232 0.412,-0.241 0.412,-0.243C0.407,-0.242 0.402,-0.235 0.397,-0.222ZM0.066,-0.24C0.06,-0.222 0.055,-0.202 0.051,-0.179C0.055,-0.138 0.061,-0.108 0.069,-0.088L0.072,-0.088L0.072,-0.094C0.066,-0.121 0.063,-0.139 0.063,-0.146L0.066,-0.152C0.064,-0.155 0.063,-0.16 0.063,-0.164C0.063,-0.169 0.064,-0.173 0.066,-0.176C0.064,-0.18 0.063,-0.183 0.063,-0.186C0.067,-0.218 0.069,-0.235 0.069,-0.237L0.069,-0.24L0.066,-0.24ZM0.294,-0.125L0.294,-0.122C0.3,-0.122 0.322,-0.143 0.357,-0.186L0.357,-0.188L0.354,-0.188C0.314,-0.151 0.294,-0.129 0.294,-0.125ZM0.379,-0.149C0.379,-0.146 0.36,-0.126 0.321,-0.088L0.324,-0.088C0.351,-0.112 0.37,-0.132 0.382,-0.146L0.385,-0.146L0.385,-0.149L0.379,-0.149ZM0.09,-0.104L0.09,-0.101C0.094,-0.08 0.104,-0.07 0.121,-0.07L0.13,-0.07L0.13,-0.073L0.09,-0.104ZM0.151,-0.055L0.188,-0.055L0.203,-0.058L0.203,-0.061L0.157,-0.061C0.153,-0.06 0.151,-0.058 0.151,-0.055ZM0.096,-0.058L0.096,-0.055C0.104,-0.045 0.113,-0.04 0.124,-0.04L0.13,-0.04L0.13,-0.042C0.127,-0.042 0.116,-0.048 0.096,-0.058Z" style="fill:white;fill-rule:nonzero;"/>
            </g>
            <g transform="matrix(340.635,0,0,340.635,758.882,753)">
                <path d="M0.208,-0.7L0.223,-0.7C0.227,-0.7 0.229,-0.697 0.229,-0.691C0.294,-0.687 0.328,-0.684 0.331,-0.682C0.333,-0.682 0.333,-0.683 0.333,-0.685C0.364,-0.683 0.387,-0.682 0.401,-0.682L0.462,-0.682C0.466,-0.682 0.468,-0.684 0.468,-0.688L0.45,-0.688L0.45,-0.694L0.49,-0.694L0.49,-0.688L0.475,-0.688L0.475,-0.682L0.557,-0.682C0.564,-0.682 0.573,-0.681 0.584,-0.679C0.603,-0.681 0.612,-0.685 0.612,-0.691L0.658,-0.691C0.678,-0.691 0.688,-0.692 0.689,-0.694C0.706,-0.692 0.72,-0.691 0.731,-0.691L0.903,-0.691L0.921,-0.688L0.928,-0.691C1.035,-0.686 1.096,-0.681 1.111,-0.676L1.13,-0.682L1.13,-0.676L1.068,-0.667L1.068,-0.664C1.075,-0.664 1.078,-0.661 1.078,-0.657C1.078,-0.654 1.075,-0.651 1.068,-0.648C1.064,-0.65 1.061,-0.651 1.059,-0.651C1.059,-0.647 1.055,-0.645 1.047,-0.645L1.047,-0.642C1.048,-0.638 1.05,-0.636 1.053,-0.636L1.059,-0.636C1.072,-0.636 1.087,-0.635 1.105,-0.633C1.113,-0.635 1.12,-0.636 1.126,-0.636C1.139,-0.625 1.145,-0.619 1.145,-0.618C1.138,-0.613 1.132,-0.611 1.126,-0.611L1.099,-0.611C1.088,-0.611 1.079,-0.608 1.071,-0.602L1.029,-0.602C1.024,-0.602 1.02,-0.603 1.017,-0.605L1.01,-0.602C0.993,-0.604 0.98,-0.605 0.971,-0.605C0.962,-0.605 0.958,-0.604 0.958,-0.602L0.928,-0.605L0.695,-0.605C0.69,-0.605 0.686,-0.604 0.683,-0.602C0.679,-0.604 0.675,-0.605 0.67,-0.605L0.563,-0.605C0.555,-0.605 0.547,-0.604 0.539,-0.602C0.531,-0.604 0.523,-0.605 0.514,-0.605L0.453,-0.605C0.429,-0.578 0.401,-0.525 0.37,-0.446C0.37,-0.439 0.334,-0.358 0.263,-0.201L0.177,-0.021C0.185,-0.001 0.189,0.011 0.189,0.013C0.186,0.013 0.177,0.001 0.162,-0.023L0.156,-0.023L0.153,-0.008C0.159,-0.001 0.162,0.006 0.162,0.013L0.162,0.017L0.15,0.007L0.128,0.007C0.128,-0.005 0.108,-0.045 0.067,-0.112C0.012,-0.235 -0.028,-0.332 -0.052,-0.403L-0.052,-0.412C-0.048,-0.412 -0.046,-0.409 -0.046,-0.403L-0.043,-0.403C-0.039,-0.403 -0.037,-0.405 -0.037,-0.409L-0.046,-0.443L-0.046,-0.446L-0.04,-0.446L0.034,-0.293L0.037,-0.293L0.037,-0.296C0.008,-0.37 -0.006,-0.41 -0.006,-0.416L-0.006,-0.421C0.009,-0.398 0.037,-0.343 0.076,-0.256C0.118,-0.177 0.142,-0.135 0.147,-0.13C0.212,-0.285 0.285,-0.442 0.364,-0.602C0.36,-0.602 0.358,-0.604 0.358,-0.608L0.352,-0.605L0.333,-0.605C0.332,-0.605 0.331,-0.606 0.331,-0.608C0.327,-0.606 0.324,-0.605 0.321,-0.605L0.315,-0.608C0.313,-0.608 0.312,-0.607 0.312,-0.605L0.291,-0.608L0.263,-0.608C0.263,-0.615 0.261,-0.618 0.257,-0.618L0.254,-0.618C0.247,-0.618 0.215,-0.621 0.159,-0.626L0.159,-0.63L0.162,-0.636L0.156,-0.636L0.156,-0.639C0.156,-0.641 0.163,-0.646 0.177,-0.654L0.184,-0.654L0.189,-0.651C0.189,-0.653 0.191,-0.659 0.193,-0.669C0.188,-0.671 0.178,-0.674 0.162,-0.676L0.162,-0.682L0.184,-0.682C0.191,-0.682 0.199,-0.688 0.208,-0.7ZM0.291,-0.697L0.352,-0.697C0.356,-0.697 0.358,-0.694 0.358,-0.691L0.291,-0.691L0.291,-0.697ZM0.41,-0.694L0.419,-0.694L0.419,-0.688L0.41,-0.688L0.41,-0.694ZM0.505,-0.694L0.533,-0.694L0.533,-0.688L0.505,-0.688L0.505,-0.694ZM0.603,-0.694L0.603,-0.691C0.603,-0.687 0.601,-0.685 0.597,-0.685L0.563,-0.685L0.563,-0.691L0.588,-0.691L0.603,-0.694ZM0.202,-0.667L0.202,-0.664L0.239,-0.664L0.239,-0.667L0.202,-0.667ZM0.269,-0.339L0.266,-0.327L0.266,-0.324L0.269,-0.324L0.272,-0.336L0.272,-0.339L0.269,-0.339ZM0.257,-0.308C0.237,-0.266 0.211,-0.205 0.177,-0.125C0.195,-0.147 0.223,-0.207 0.26,-0.305L0.26,-0.308L0.257,-0.308Z" style="fill:white;fill-rule:nonzero;"/>
            </g>
            <g transform="matrix(340.635,0,0,340.635,891.444,753)">
                <path d="M0.631,-0.705C0.646,-0.705 0.661,-0.696 0.673,-0.678L0.646,-0.678C0.62,-0.678 0.587,-0.67 0.546,-0.653L0.546,-0.65L0.549,-0.65C0.607,-0.654 0.649,-0.656 0.677,-0.656L0.683,-0.656L0.683,-0.65L0.67,-0.65C0.668,-0.65 0.667,-0.651 0.667,-0.653L0.503,-0.629C0.503,-0.627 0.493,-0.624 0.473,-0.62L0.473,-0.614L0.519,-0.623L0.521,-0.623L0.521,-0.617C0.386,-0.581 0.318,-0.555 0.318,-0.538C0.252,-0.483 0.204,-0.431 0.175,-0.383C0.131,-0.304 0.108,-0.243 0.108,-0.201C0.108,-0.157 0.131,-0.125 0.175,-0.104C0.183,-0.102 0.19,-0.101 0.196,-0.101C0.286,-0.136 0.353,-0.196 0.397,-0.28C0.409,-0.318 0.419,-0.363 0.427,-0.417L0.434,-0.417L0.427,-0.359C0.433,-0.359 0.439,-0.374 0.443,-0.404C0.441,-0.412 0.439,-0.42 0.439,-0.429L0.439,-0.438L0.446,-0.438C0.448,-0.407 0.449,-0.386 0.449,-0.374C0.449,-0.358 0.444,-0.331 0.434,-0.292C0.445,-0.302 0.458,-0.335 0.473,-0.392C0.48,-0.447 0.486,-0.474 0.491,-0.474C0.491,-0.472 0.492,-0.471 0.494,-0.471C0.492,-0.469 0.49,-0.457 0.488,-0.435L0.488,-0.432L0.491,-0.432C0.499,-0.454 0.504,-0.48 0.506,-0.508C0.502,-0.516 0.5,-0.522 0.5,-0.526L0.506,-0.529C0.512,-0.529 0.518,-0.513 0.525,-0.48C0.525,-0.4 0.491,-0.297 0.424,-0.17C0.372,-0.093 0.305,-0.042 0.224,-0.019C0.188,-0.006 0.154,-0 0.121,-0C0.04,-0.022 -0.001,-0.083 -0.001,-0.183C-0.001,-0.296 0.045,-0.398 0.136,-0.489C0.165,-0.522 0.227,-0.568 0.321,-0.629C0.425,-0.68 0.529,-0.705 0.631,-0.705ZM0.482,-0.656L0.482,-0.653C0.499,-0.653 0.508,-0.652 0.509,-0.65C0.526,-0.659 0.536,-0.663 0.54,-0.663L0.54,-0.668L0.482,-0.656ZM0.099,-0.417C0.144,-0.458 0.179,-0.494 0.206,-0.523C0.23,-0.538 0.242,-0.55 0.242,-0.559C0.201,-0.535 0.156,-0.493 0.108,-0.432C0.102,-0.427 0.099,-0.422 0.099,-0.417ZM0.105,-0.261C0.108,-0.261 0.118,-0.284 0.136,-0.328C0.158,-0.378 0.203,-0.439 0.272,-0.511L0.272,-0.514C0.204,-0.463 0.167,-0.422 0.16,-0.392C0.142,-0.371 0.124,-0.328 0.105,-0.261ZM0.069,-0.334L0.069,-0.332L0.072,-0.332C0.116,-0.393 0.139,-0.429 0.139,-0.438C0.11,-0.413 0.086,-0.378 0.069,-0.334ZM0.467,-0.31L0.467,-0.307L0.47,-0.307C0.492,-0.371 0.503,-0.413 0.503,-0.432C0.49,-0.409 0.478,-0.369 0.467,-0.31ZM0.087,-0.404L0.087,-0.401C0.091,-0.401 0.093,-0.403 0.093,-0.407L0.093,-0.41C0.089,-0.41 0.087,-0.408 0.087,-0.404ZM0.063,-0.368C0.032,-0.297 0.017,-0.245 0.017,-0.213C0.021,-0.148 0.028,-0.107 0.039,-0.088L0.042,-0.088L0.042,-0.094C0.035,-0.107 0.032,-0.129 0.032,-0.158C0.032,-0.191 0.035,-0.227 0.042,-0.268L0.039,-0.273C0.045,-0.3 0.054,-0.331 0.066,-0.365L0.066,-0.368L0.063,-0.368ZM0.096,-0.24L0.096,-0.237C0.1,-0.237 0.103,-0.239 0.103,-0.243L0.103,-0.246C0.098,-0.245 0.096,-0.243 0.096,-0.24ZM0.397,-0.222L0.397,-0.219L0.4,-0.219C0.408,-0.232 0.412,-0.241 0.412,-0.243C0.407,-0.242 0.402,-0.235 0.397,-0.222ZM0.066,-0.24C0.06,-0.222 0.055,-0.202 0.051,-0.179C0.055,-0.138 0.061,-0.108 0.069,-0.088L0.072,-0.088L0.072,-0.094C0.066,-0.121 0.063,-0.139 0.063,-0.146L0.066,-0.152C0.064,-0.155 0.063,-0.16 0.063,-0.164C0.063,-0.169 0.064,-0.173 0.066,-0.176C0.064,-0.18 0.063,-0.183 0.063,-0.186C0.067,-0.218 0.069,-0.235 0.069,-0.237L0.069,-0.24L0.066,-0.24ZM0.294,-0.125L0.294,-0.122C0.3,-0.122 0.322,-0.143 0.357,-0.186L0.357,-0.188L0.354,-0.188C0.314,-0.151 0.294,-0.129 0.294,-0.125ZM0.379,-0.149C0.379,-0.146 0.36,-0.126 0.321,-0.088L0.324,-0.088C0.351,-0.112 0.37,-0.132 0.382,-0.146L0.385,-0.146L0.385,-0.149L0.379,-0.149ZM0.09,-0.104L0.09,-0.101C0.094,-0.08 0.104,-0.07 0.121,-0.07L0.13,-0.07L0.13,-0.073L0.09,-0.104ZM0.151,-0.055L0.188,-0.055L0.203,-0.058L0.203,-0.061L0.157,-0.061C0.153,-0.06 0.151,-0.058 0.151,-0.055ZM0.096,-0.058L0.096,-0.055C0.104,-0.045 0.113,-0.04 0.124,-0.04L0.13,-0.04L0.13,-0.042C0.127,-0.042 0.116,-0.048 0.096,-0.058Z" style="fill:white;fill-rule:nonzero;"/>
            </g>
        </g>
    </g>
</svg>
