<?xml version="1.0" encoding="UTF-8" standalone="no"?>
<!DOCTYPE svg PUBLIC "-//W3C//DTD SVG 1.1//EN" "http://www.w3.org/Graphics/SVG/1.1/DTD/svg11.dtd">
<svg width="100%" height="100%" viewBox="0 0 24 24" version="1.1" xmlns="http://www.w3.org/2000/svg" xmlns:xlink="http://www.w3.org/1999/xlink" xml:space="preserve" xmlns:serif="http://www.serif.com/" style="fill-rule:evenodd;clip-rule:evenodd;stroke-linejoin:round;stroke-miterlimit:2;">
    <g id="Artboard1" transform="matrix(0.5,0,0,0.5,0,0)">
        <rect x="0" y="0" width="48" height="48" style="fill:none;"/>
        <path d="M24,0C37.246,0 48,10.754 48,24C48,37.246 37.246,48 24,48C10.754,48 0,37.246 0,24C0,10.754 10.754,0 24,0ZM24,8.4C32.61,8.4 39.6,15.39 39.6,24C39.6,32.61 32.61,39.6 24,39.6C15.39,39.6 8.4,32.61 8.4,24C8.4,15.39 15.39,8.4 24,8.4Z" style="fill:white;"/>
    </g>
</svg>
