<?xml version="1.0" encoding="UTF-8" standalone="no"?>
<!DOCTYPE svg PUBLIC "-//W3C//DTD SVG 1.1//EN"
 "http://www.w3.org/Graphics/SVG/1.1/DTD/svg11.dtd">
<!-- Generated by graphviz version 2.38.0 (20140413.2041)
 -->
<!-- Title: Sync Files Pages: 1 -->
<svg width="390pt" height="132pt"
 viewBox="0.00 0.00 390.00 132.00" xmlns="http://www.w3.org/2000/svg" xmlns:xlink="http://www.w3.org/1999/xlink">
<g id="graph0" class="graph" transform="scale(1 1) rotate(0) translate(4 128)">
<title>Sync Files</title>
<polygon fill="white" stroke="none" points="-4,4 -4,-128 386,-128 386,4 -4,4"/>
<!-- model -->
<g id="node1" class="node"><title>model</title>
<polygon fill="none" stroke="black" points="75,-87.5 75,-123.5 273,-123.5 273,-87.5 75,-87.5"/>
<text text-anchor="middle" x="174" y="-101.8" font-family="monospace" font-size="14.00">My Cool Model (Folder)</text>
</g>
<!-- root_part -->
<g id="node2" class="node"><title>root_part</title>
<polygon fill="none" stroke="black" points="0,-0.5 0,-36.5 140,-36.5 140,-0.5 0,-0.5"/>
<text text-anchor="middle" x="70" y="-14.8" font-family="monospace" font-size="14.00">RootPart (Part)</text>
</g>
<!-- model&#45;&gt;root_part -->
<g id="edge1" class="edge"><title>model&#45;&gt;root_part</title>
<path fill="none" stroke="black" d="M152.954,-87.299C137.448,-74.6257 116.168,-57.2335 99.0438,-43.2377"/>
<polygon fill="black" stroke="black" points="100.972,-40.2938 91.0147,-36.6754 96.5426,-45.7138 100.972,-40.2938"/>
</g>
<!-- send_money -->
<g id="node3" class="node"><title>send_money</title>
<polygon fill="none" stroke="black" points="176,-0.5 176,-36.5 382,-36.5 382,-0.5 176,-0.5"/>
<text text-anchor="middle" x="279" y="-14.8" font-family="monospace" font-size="14.00">SendMoney (RemoteEvent)</text>
</g>
<!-- model&#45;&gt;send_money -->
<g id="edge2" class="edge"><title>model&#45;&gt;send_money</title>
<path fill="none" stroke="black" d="M195.248,-87.299C210.904,-74.6257 232.388,-57.2335 249.677,-43.2377"/>
<polygon fill="black" stroke="black" points="252.213,-45.6878 257.783,-36.6754 247.809,-40.2471 252.213,-45.6878"/>
</g>
</g>
</svg>
