<?xml version="1.0" encoding="UTF-8" standalone="no"?>
<!DOCTYPE svg PUBLIC "-//W3C//DTD SVG 1.1//EN"
 "http://www.w3.org/Graphics/SVG/1.1/DTD/svg11.dtd">
<!-- Generated by graphviz version 2.38.0 (20140413.2041)
 -->
<!-- Title: Sync Files Pages: 1 -->
<svg width="258pt" height="132pt"
 viewBox="0.00 0.00 258.00 132.00" xmlns="http://www.w3.org/2000/svg" xmlns:xlink="http://www.w3.org/1999/xlink">
<g id="graph0" class="graph" transform="scale(1 1) rotate(0) translate(4 128)">
<title>Sync Files</title>
<polygon fill="white" stroke="none" points="-4,4 -4,-128 254,-128 254,4 -4,4"/>
<!-- my_model -->
<g id="node1" class="node"><title>my_model</title>
<polygon fill="none" stroke="black" points="104,-87.5 104,-123.5 178,-123.5 178,-87.5 104,-87.5"/>
<text text-anchor="middle" x="141" y="-101.8" font-family="monospace" font-size="14.00">MyModel</text>
</g>
<!-- init_server -->
<g id="node2" class="node"><title>init_server</title>
<polygon fill="none" stroke="black" points="0,-0.5 0,-36.5 140,-36.5 140,-0.5 0,-0.5"/>
<text text-anchor="middle" x="70" y="-14.8" font-family="monospace" font-size="14.00">init.server.lua</text>
</g>
<!-- my_model&#45;&gt;init_server -->
<g id="edge1" class="edge"><title>my_model&#45;&gt;init_server</title>
<path fill="none" stroke="black" d="M126.632,-87.299C116.335,-74.9713 102.308,-58.1787 90.7907,-44.3902"/>
<polygon fill="black" stroke="black" points="93.4435,-42.1065 84.3465,-36.6754 88.0711,-46.594 93.4435,-42.1065"/>
</g>
<!-- foo -->
<g id="node3" class="node"><title>foo</title>
<polygon fill="none" stroke="black" points="176,-0.5 176,-36.5 250,-36.5 250,-0.5 176,-0.5"/>
<text text-anchor="middle" x="213" y="-14.8" font-family="monospace" font-size="14.00">foo.lua</text>
</g>
<!-- my_model&#45;&gt;foo -->
<g id="edge2" class="edge"><title>my_model&#45;&gt;foo</title>
<path fill="none" stroke="black" d="M155.57,-87.299C166.013,-74.9713 180.237,-58.1787 191.917,-44.3902"/>
<polygon fill="black" stroke="black" points="194.659,-46.5681 198.451,-36.6754 189.317,-42.0437 194.659,-46.5681"/>
</g>
</g>
</svg>
